<svg width="150" height="58" viewBox="0 0 150 58" fill="none" xmlns="http://www.w3.org/2000/svg">
<rect width="150" height="58" fill="white"/>
<path d="M11.1152 37.7363C10.6494 37.9824 10.0693 38.1055 9.375 38.1055C8.47852 38.1055 7.76074 37.8169 7.22168 37.2397C6.68262 36.6626 6.41309 35.9053 6.41309 34.9678C6.41309 33.96 6.71631 33.1455 7.32275 32.5244C7.9292 31.9033 8.69824 31.5928 9.62988 31.5928C10.2275 31.5928 10.7227 31.6792 11.1152 31.8521V32.6387C10.6641 32.3867 10.166 32.2607 9.62109 32.2607C8.89746 32.2607 8.31006 32.5024 7.85889 32.9858C7.41064 33.4692 7.18652 34.1152 7.18652 34.9238C7.18652 35.6914 7.396 36.3037 7.81494 36.7607C8.23682 37.2148 8.78906 37.4419 9.47168 37.4419C10.1045 37.4419 10.6523 37.3013 11.1152 37.02V37.7363ZM13.0225 38H12.3018V31.3379H13.0225V38ZM18.0981 35.9302H14.9209C14.9326 36.4312 15.0674 36.8179 15.3252 37.0903C15.583 37.3628 15.9375 37.499 16.3887 37.499C16.8955 37.499 17.3613 37.332 17.7861 36.998V37.6748C17.3906 37.9619 16.8677 38.1055 16.2173 38.1055C15.5815 38.1055 15.082 37.9019 14.7188 37.4946C14.3555 37.0845 14.1738 36.5088 14.1738 35.7676C14.1738 35.0674 14.3716 34.4976 14.7671 34.0581C15.1655 33.6157 15.6592 33.3945 16.248 33.3945C16.8369 33.3945 17.2925 33.585 17.6147 33.9658C17.937 34.3467 18.0981 34.8755 18.0981 35.5522V35.9302ZM17.3599 35.3193C17.3569 34.9033 17.2559 34.5796 17.0566 34.3481C16.8604 34.1167 16.5864 34.001 16.2349 34.001C15.895 34.001 15.6064 34.1226 15.3691 34.3657C15.1318 34.6089 14.9854 34.9268 14.9297 35.3193H17.3599ZM22.4136 38H21.6929V37.2969H21.6753C21.3618 37.8359 20.9004 38.1055 20.291 38.1055C19.8428 38.1055 19.4912 37.9868 19.2363 37.7495C18.9844 37.5122 18.8584 37.1973 18.8584 36.8047C18.8584 35.9639 19.3535 35.4746 20.3438 35.3369L21.6929 35.1479C21.6929 34.3833 21.3838 34.001 20.7656 34.001C20.2236 34.001 19.7344 34.1855 19.2979 34.5547V33.8164C19.7402 33.5352 20.25 33.3945 20.8271 33.3945C21.8848 33.3945 22.4136 33.9541 22.4136 35.0732V38ZM21.6929 35.7236L20.6074 35.873C20.2734 35.9199 20.0215 36.0034 19.8516 36.1235C19.6816 36.2407 19.5967 36.4502 19.5967 36.752C19.5967 36.9717 19.6743 37.1519 19.8296 37.2925C19.9878 37.4302 20.1973 37.499 20.458 37.499C20.8154 37.499 21.1099 37.3745 21.3413 37.1255C21.5757 36.8735 21.6929 36.5557 21.6929 36.1719V35.7236ZM27.5068 38H26.7861V35.4336C26.7861 34.4785 26.4375 34.001 25.7402 34.001C25.3799 34.001 25.0811 34.1372 24.8438 34.4097C24.6094 34.6792 24.4922 35.0205 24.4922 35.4336V38H23.7715V33.5H24.4922V34.2471H24.5098C24.8496 33.6787 25.3418 33.3945 25.9863 33.3945C26.4785 33.3945 26.855 33.5542 27.1157 33.8735C27.3765 34.1899 27.5068 34.6484 27.5068 35.249V38ZM29.2383 32.3574C29.1094 32.3574 28.9995 32.3135 28.9087 32.2256C28.8179 32.1377 28.7725 32.0264 28.7725 31.8916C28.7725 31.7568 28.8179 31.6455 28.9087 31.5576C28.9995 31.4668 29.1094 31.4214 29.2383 31.4214C29.3701 31.4214 29.4814 31.4668 29.5723 31.5576C29.666 31.6455 29.7129 31.7568 29.7129 31.8916C29.7129 32.0205 29.666 32.1304 29.5723 32.2212C29.4814 32.312 29.3701 32.3574 29.2383 32.3574ZM29.5898 38H28.8691V33.5H29.5898V38ZM34.7842 38H34.0635V35.4336C34.0635 34.4785 33.7148 34.001 33.0176 34.001C32.6572 34.001 32.3584 34.1372 32.1211 34.4097C31.8867 34.6792 31.7695 35.0205 31.7695 35.4336V38H31.0488V33.5H31.7695V34.2471H31.7871C32.127 33.6787 32.6191 33.3945 33.2637 33.3945C33.7559 33.3945 34.1323 33.5542 34.3931 33.8735C34.6538 34.1899 34.7842 34.6484 34.7842 35.249V38ZM39.9873 37.6396C39.9873 39.292 39.1963 40.1182 37.6143 40.1182C37.0576 40.1182 36.5713 40.0127 36.1553 39.8018V39.0811C36.6621 39.3623 37.1455 39.5029 37.6055 39.5029C38.7129 39.5029 39.2666 38.9141 39.2666 37.7363V37.2441H39.249C38.9062 37.8184 38.3906 38.1055 37.7021 38.1055C37.1426 38.1055 36.6914 37.9062 36.3486 37.5078C36.0088 37.1064 35.8389 36.5688 35.8389 35.895C35.8389 35.1304 36.022 34.5225 36.3882 34.0713C36.7573 33.6201 37.2612 33.3945 37.8999 33.3945C38.5063 33.3945 38.9561 33.6377 39.249 34.124H39.2666V33.5H39.9873V37.6396ZM39.2666 35.9653V35.3018C39.2666 34.9443 39.145 34.6382 38.9019 34.3833C38.6616 34.1284 38.3613 34.001 38.001 34.001C37.5557 34.001 37.207 34.1636 36.9551 34.4888C36.7031 34.811 36.5771 35.2637 36.5771 35.8467C36.5771 36.3477 36.6973 36.749 36.9375 37.0508C37.1807 37.3496 37.5015 37.499 37.8999 37.499C38.3042 37.499 38.6323 37.3555 38.8843 37.0684C39.1392 36.7812 39.2666 36.4136 39.2666 35.9653ZM49.5366 38.1011C49.3696 38.1011 49.2217 38.0776 49.0928 38.0308C48.9668 37.9868 48.8496 37.9238 48.7412 37.8418C48.6328 37.7568 48.5273 37.6543 48.4248 37.5342C48.3252 37.4141 48.2197 37.2778 48.1084 37.1255C47.9912 37.2515 47.855 37.373 47.6997 37.4902C47.5474 37.6074 47.3774 37.7114 47.1899 37.8022C47.0024 37.8931 46.7974 37.9648 46.5747 38.0176C46.3521 38.0732 46.1104 38.1011 45.8496 38.1011C45.5332 38.1011 45.2432 38.0615 44.9795 37.9824C44.7158 37.9033 44.4902 37.7876 44.3027 37.6353C44.1152 37.48 43.9688 37.2896 43.8633 37.064C43.7607 36.8384 43.7095 36.5791 43.7095 36.2861C43.7095 35.8379 43.8369 35.4556 44.0918 35.1392C44.3467 34.8198 44.707 34.5591 45.1729 34.3569C45.085 34.2925 44.9971 34.2178 44.9092 34.1328C44.8213 34.0449 44.7422 33.9468 44.6719 33.8384C44.6045 33.7271 44.5488 33.6055 44.5049 33.4736C44.4639 33.3389 44.4434 33.1924 44.4434 33.0342C44.4434 32.8027 44.4844 32.5977 44.5664 32.4189C44.6514 32.2402 44.7671 32.0894 44.9136 31.9663C45.0601 31.8433 45.2329 31.751 45.4321 31.6895C45.6313 31.625 45.8467 31.5928 46.0781 31.5928C46.3066 31.5928 46.5146 31.625 46.7021 31.6895C46.8926 31.751 47.0552 31.8403 47.1899 31.9575C47.3276 32.0747 47.4346 32.2153 47.5107 32.3794C47.5869 32.5435 47.625 32.7266 47.625 32.9287C47.625 33.2803 47.5239 33.5732 47.3218 33.8076C47.1226 34.0391 46.8223 34.2368 46.4209 34.4009C46.623 34.48 46.8062 34.5767 46.9702 34.6909C47.1343 34.8052 47.2852 34.9326 47.4229 35.0732C47.5635 35.2139 47.6938 35.3647 47.814 35.5259C47.9341 35.687 48.0527 35.854 48.1699 36.0269C48.4072 35.6958 48.5859 35.3311 48.7061 34.9326C48.8262 34.5342 48.8862 34.1167 48.8862 33.6802C48.8862 33.5688 48.8789 33.4648 48.8643 33.3682C48.8525 33.2686 48.835 33.1704 48.8115 33.0737H49.5103C49.5337 33.1704 49.5469 33.2627 49.5498 33.3506C49.5557 33.4355 49.5615 33.5381 49.5674 33.6582C49.5674 33.9248 49.5396 34.1929 49.4839 34.4624C49.4282 34.7319 49.3535 34.9941 49.2598 35.249C49.166 35.501 49.0562 35.7412 48.9302 35.9697C48.8071 36.1982 48.6768 36.4077 48.5391 36.5981C48.6416 36.7388 48.7354 36.8618 48.8203 36.9673C48.9053 37.0698 48.9902 37.1562 49.0752 37.2266C49.1631 37.2969 49.2524 37.3496 49.3433 37.3848C49.437 37.417 49.5425 37.4331 49.6597 37.4331C49.7476 37.4331 49.8369 37.4214 49.9277 37.3979C50.0186 37.3745 50.1123 37.3452 50.209 37.3101V37.978C50.1035 38.019 49.9922 38.0498 49.875 38.0703C49.7607 38.0908 49.6479 38.1011 49.5366 38.1011ZM45.8496 37.4771C46.0723 37.4771 46.2773 37.4536 46.4648 37.4067C46.6523 37.3569 46.8252 37.2925 46.9834 37.2134C47.1416 37.1313 47.2852 37.0376 47.4141 36.9321C47.543 36.8237 47.6602 36.7109 47.7656 36.5938C47.5869 36.3154 47.4214 36.0781 47.269 35.8818C47.1196 35.6826 46.9673 35.5112 46.812 35.3677C46.6597 35.2241 46.4956 35.1011 46.3198 34.9985C46.147 34.896 45.9463 34.8008 45.7178 34.7129C45.5332 34.7861 45.3633 34.8682 45.208 34.959C45.0527 35.0469 44.918 35.1523 44.8037 35.2754C44.6924 35.3955 44.6045 35.5361 44.54 35.6973C44.4756 35.8584 44.4434 36.0474 44.4434 36.2642C44.4434 36.4634 44.48 36.6392 44.5532 36.7915C44.6265 36.9438 44.7261 37.0713 44.8521 37.1738C44.981 37.2734 45.1304 37.3496 45.3003 37.4023C45.4702 37.4521 45.6533 37.4771 45.8496 37.4771ZM46.9482 32.9902C46.9482 32.8438 46.9204 32.7192 46.8647 32.6167C46.812 32.5142 46.7432 32.4292 46.6582 32.3618C46.5762 32.2944 46.4839 32.2461 46.3813 32.2168C46.2788 32.1846 46.1777 32.1685 46.0781 32.1685C45.791 32.1685 45.561 32.2461 45.3882 32.4014C45.2183 32.5566 45.1318 32.7676 45.1289 33.0342C45.1289 33.1543 45.1465 33.2671 45.1816 33.3726C45.2197 33.478 45.271 33.5762 45.3354 33.667C45.4028 33.7578 45.4805 33.8384 45.5684 33.9087C45.6562 33.979 45.75 34.0391 45.8496 34.0889C46.2188 33.96 46.4941 33.8105 46.6758 33.6406C46.8574 33.4678 46.9482 33.251 46.9482 32.9902ZM57.416 32.3662H55.5967V38H54.8584V32.3662H53.0435V31.6982H57.416V32.3662ZM61.9292 35.9302H58.752C58.7637 36.4312 58.8984 36.8179 59.1562 37.0903C59.4141 37.3628 59.7686 37.499 60.2197 37.499C60.7266 37.499 61.1924 37.332 61.6172 36.998V37.6748C61.2217 37.9619 60.6987 38.1055 60.0483 38.1055C59.4126 38.1055 58.9131 37.9019 58.5498 37.4946C58.1865 37.0845 58.0049 36.5088 58.0049 35.7676C58.0049 35.0674 58.2026 34.4976 58.5981 34.0581C58.9966 33.6157 59.4902 33.3945 60.0791 33.3945C60.668 33.3945 61.1235 33.585 61.4458 33.9658C61.7681 34.3467 61.9292 34.8755 61.9292 35.5522V35.9302ZM61.1909 35.3193C61.188 34.9033 61.0869 34.5796 60.8877 34.3481C60.6914 34.1167 60.4175 34.001 60.0659 34.001C59.7261 34.001 59.4375 34.1226 59.2002 34.3657C58.9629 34.6089 58.8164 34.9268 58.7607 35.3193H61.1909ZM66.0908 37.7935C65.7451 38.0015 65.335 38.1055 64.8604 38.1055C64.2188 38.1055 63.7002 37.8975 63.3047 37.4814C62.9121 37.0625 62.7158 36.5205 62.7158 35.8555C62.7158 35.1143 62.9282 34.5195 63.353 34.0713C63.7778 33.6201 64.3447 33.3945 65.0537 33.3945C65.4492 33.3945 65.7979 33.4678 66.0996 33.6143V34.3525C65.7656 34.1182 65.4082 34.001 65.0273 34.001C64.5674 34.001 64.1895 34.1665 63.8936 34.4976C63.6006 34.8257 63.4541 35.2578 63.4541 35.7939C63.4541 36.3213 63.5918 36.7373 63.8672 37.042C64.1455 37.3467 64.5176 37.499 64.9834 37.499C65.376 37.499 65.7451 37.3687 66.0908 37.1079V37.7935ZM70.916 38H70.1953V35.4072C70.1953 34.4697 69.8467 34.001 69.1494 34.001C68.7979 34.001 68.502 34.1372 68.2617 34.4097C68.0215 34.6792 67.9014 35.0264 67.9014 35.4512V38H67.1807V31.3379H67.9014V34.2471H67.9189C68.2646 33.6787 68.7568 33.3945 69.3955 33.3945C70.4092 33.3945 70.916 34.0054 70.916 35.2271V38ZM76.0137 38H75.293V35.4336C75.293 34.4785 74.9443 34.001 74.2471 34.001C73.8867 34.001 73.5879 34.1372 73.3506 34.4097C73.1162 34.6792 72.999 35.0205 72.999 35.4336V38H72.2783V33.5H72.999V34.2471H73.0166C73.3564 33.6787 73.8486 33.3945 74.4932 33.3945C74.9854 33.3945 75.3618 33.5542 75.6226 33.8735C75.8833 34.1899 76.0137 34.6484 76.0137 35.249V38ZM77.7451 32.3574C77.6162 32.3574 77.5063 32.3135 77.4155 32.2256C77.3247 32.1377 77.2793 32.0264 77.2793 31.8916C77.2793 31.7568 77.3247 31.6455 77.4155 31.5576C77.5063 31.4668 77.6162 31.4214 77.7451 31.4214C77.877 31.4214 77.9883 31.4668 78.0791 31.5576C78.1729 31.6455 78.2197 31.7568 78.2197 31.8916C78.2197 32.0205 78.1729 32.1304 78.0791 32.2212C77.9883 32.312 77.877 32.3574 77.7451 32.3574ZM78.0967 38H77.376V33.5H78.0967V38ZM82.623 37.7935C82.2773 38.0015 81.8672 38.1055 81.3926 38.1055C80.751 38.1055 80.2324 37.8975 79.8369 37.4814C79.4443 37.0625 79.248 36.5205 79.248 35.8555C79.248 35.1143 79.4604 34.5195 79.8853 34.0713C80.3101 33.6201 80.877 33.3945 81.5859 33.3945C81.9814 33.3945 82.3301 33.4678 82.6318 33.6143V34.3525C82.2979 34.1182 81.9404 34.001 81.5596 34.001C81.0996 34.001 80.7217 34.1665 80.4258 34.4976C80.1328 34.8257 79.9863 35.2578 79.9863 35.7939C79.9863 36.3213 80.124 36.7373 80.3994 37.042C80.6777 37.3467 81.0498 37.499 81.5156 37.499C81.9082 37.499 82.2773 37.3687 82.623 37.1079V37.7935ZM86.9341 38H86.2134V37.2969H86.1958C85.8823 37.8359 85.4209 38.1055 84.8115 38.1055C84.3633 38.1055 84.0117 37.9868 83.7568 37.7495C83.5049 37.5122 83.3789 37.1973 83.3789 36.8047C83.3789 35.9639 83.874 35.4746 84.8643 35.3369L86.2134 35.1479C86.2134 34.3833 85.9043 34.001 85.2861 34.001C84.7441 34.001 84.2549 34.1855 83.8184 34.5547V33.8164C84.2607 33.5352 84.7705 33.3945 85.3477 33.3945C86.4053 33.3945 86.9341 33.9541 86.9341 35.0732V38ZM86.2134 35.7236L85.1279 35.873C84.7939 35.9199 84.542 36.0034 84.3721 36.1235C84.2021 36.2407 84.1172 36.4502 84.1172 36.752C84.1172 36.9717 84.1948 37.1519 84.3501 37.2925C84.5083 37.4302 84.7178 37.499 84.9785 37.499C85.3359 37.499 85.6304 37.3745 85.8618 37.1255C86.0962 36.8735 86.2134 36.5557 86.2134 36.1719V35.7236ZM89.0127 38H88.292V31.3379H89.0127V38ZM92.7437 37.7451V36.875C92.8433 36.9629 92.9619 37.042 93.0996 37.1123C93.2402 37.1826 93.3867 37.2427 93.5391 37.2925C93.6943 37.3394 93.8496 37.376 94.0049 37.4023C94.1602 37.4287 94.3037 37.4419 94.4355 37.4419C94.8896 37.4419 95.228 37.3584 95.4507 37.1914C95.6763 37.0215 95.7891 36.7783 95.7891 36.4619C95.7891 36.292 95.751 36.144 95.6748 36.0181C95.6016 35.8921 95.499 35.7778 95.3672 35.6753C95.2354 35.5698 95.0786 35.4702 94.897 35.3765C94.7183 35.2798 94.5249 35.1787 94.3169 35.0732C94.0972 34.9619 93.8921 34.8491 93.7017 34.7349C93.5112 34.6206 93.3457 34.4946 93.2051 34.3569C93.0645 34.2192 92.9531 34.064 92.8711 33.8911C92.792 33.7153 92.7524 33.5103 92.7524 33.2759C92.7524 32.9888 92.8154 32.7397 92.9414 32.5288C93.0674 32.3149 93.2329 32.1392 93.438 32.0015C93.6431 31.8638 93.876 31.7612 94.1367 31.6938C94.4004 31.6265 94.6685 31.5928 94.9409 31.5928C95.562 31.5928 96.0146 31.6675 96.2988 31.8169V32.6475C95.9268 32.3896 95.4492 32.2607 94.8662 32.2607C94.7051 32.2607 94.5439 32.2783 94.3828 32.3135C94.2217 32.3457 94.0781 32.3999 93.9521 32.4761C93.8262 32.5522 93.7236 32.6504 93.6445 32.7705C93.5654 32.8906 93.5259 33.0371 93.5259 33.21C93.5259 33.3711 93.5552 33.5103 93.6138 33.6274C93.6753 33.7446 93.7646 33.8516 93.8818 33.9482C93.999 34.0449 94.1411 34.1387 94.3081 34.2295C94.478 34.3203 94.6729 34.4199 94.8926 34.5283C95.1182 34.6396 95.332 34.7568 95.5342 34.8799C95.7363 35.0029 95.9136 35.1392 96.0659 35.2886C96.2183 35.438 96.3384 35.6035 96.4263 35.7852C96.5171 35.9668 96.5625 36.1748 96.5625 36.4092C96.5625 36.7197 96.501 36.9834 96.3779 37.2002C96.2578 37.4141 96.0938 37.5884 95.8857 37.7231C95.6807 37.8579 95.4434 37.9546 95.1738 38.0132C94.9043 38.0747 94.6201 38.1055 94.3213 38.1055C94.2217 38.1055 94.0986 38.0967 93.9521 38.0791C93.8057 38.0645 93.6562 38.041 93.5039 38.0088C93.3516 37.9795 93.2065 37.9429 93.0688 37.8989C92.9341 37.8521 92.8257 37.8008 92.7437 37.7451ZM101.339 35.9302H98.1621C98.1738 36.4312 98.3086 36.8179 98.5664 37.0903C98.8242 37.3628 99.1787 37.499 99.6299 37.499C100.137 37.499 100.603 37.332 101.027 36.998V37.6748C100.632 37.9619 100.109 38.1055 99.4585 38.1055C98.8228 38.1055 98.3232 37.9019 97.96 37.4946C97.5967 37.0845 97.415 36.5088 97.415 35.7676C97.415 35.0674 97.6128 34.4976 98.0083 34.0581C98.4067 33.6157 98.9004 33.3945 99.4893 33.3945C100.078 33.3945 100.534 33.585 100.856 33.9658C101.178 34.3467 101.339 34.8755 101.339 35.5522V35.9302ZM100.601 35.3193C100.598 34.9033 100.497 34.5796 100.298 34.3481C100.102 34.1167 99.8276 34.001 99.4761 34.001C99.1362 34.001 98.8477 34.1226 98.6104 34.3657C98.373 34.6089 98.2266 34.9268 98.1709 35.3193H100.601ZM104.78 34.2295C104.654 34.1328 104.473 34.0845 104.235 34.0845C103.928 34.0845 103.67 34.2295 103.462 34.5195C103.257 34.8096 103.154 35.2051 103.154 35.7061V38H102.434V33.5H103.154V34.4272H103.172C103.274 34.1108 103.431 33.8647 103.642 33.689C103.853 33.5103 104.089 33.4209 104.35 33.4209C104.537 33.4209 104.681 33.4414 104.78 33.4824V34.2295ZM109.1 33.5L107.307 38H106.6L104.895 33.5H105.686L106.828 36.7695C106.913 37.0098 106.966 37.2192 106.986 37.3979H107.004C107.033 37.1724 107.08 36.9688 107.145 36.7871L108.34 33.5H109.1ZM110.247 32.3574C110.118 32.3574 110.008 32.3135 109.917 32.2256C109.827 32.1377 109.781 32.0264 109.781 31.8916C109.781 31.7568 109.827 31.6455 109.917 31.5576C110.008 31.4668 110.118 31.4214 110.247 31.4214C110.379 31.4214 110.49 31.4668 110.581 31.5576C110.675 31.6455 110.722 31.7568 110.722 31.8916C110.722 32.0205 110.675 32.1304 110.581 32.2212C110.49 32.312 110.379 32.3574 110.247 32.3574ZM110.599 38H109.878V33.5H110.599V38ZM115.125 37.7935C114.779 38.0015 114.369 38.1055 113.895 38.1055C113.253 38.1055 112.734 37.8975 112.339 37.4814C111.946 37.0625 111.75 36.5205 111.75 35.8555C111.75 35.1143 111.962 34.5195 112.387 34.0713C112.812 33.6201 113.379 33.3945 114.088 33.3945C114.483 33.3945 114.832 33.4678 115.134 33.6143V34.3525C114.8 34.1182 114.442 34.001 114.062 34.001C113.602 34.001 113.224 34.1665 112.928 34.4976C112.635 34.8257 112.488 35.2578 112.488 35.7939C112.488 36.3213 112.626 36.7373 112.901 37.042C113.18 37.3467 113.552 37.499 114.018 37.499C114.41 37.499 114.779 37.3687 115.125 37.1079V37.7935ZM119.832 35.9302H116.654C116.666 36.4312 116.801 36.8179 117.059 37.0903C117.316 37.3628 117.671 37.499 118.122 37.499C118.629 37.499 119.095 37.332 119.52 36.998V37.6748C119.124 37.9619 118.601 38.1055 117.951 38.1055C117.315 38.1055 116.815 37.9019 116.452 37.4946C116.089 37.0845 115.907 36.5088 115.907 35.7676C115.907 35.0674 116.105 34.4976 116.5 34.0581C116.899 33.6157 117.393 33.3945 117.981 33.3945C118.57 33.3945 119.026 33.585 119.348 33.9658C119.67 34.3467 119.832 34.8755 119.832 35.5522V35.9302ZM119.093 35.3193C119.09 34.9033 118.989 34.5796 118.79 34.3481C118.594 34.1167 118.32 34.001 117.968 34.001C117.628 34.001 117.34 34.1226 117.103 34.3657C116.865 34.6089 116.719 34.9268 116.663 35.3193H119.093ZM120.653 37.8374V37.064C121.046 37.354 121.478 37.499 121.95 37.499C122.583 37.499 122.899 37.2881 122.899 36.8662C122.899 36.7461 122.871 36.645 122.815 36.563C122.763 36.478 122.689 36.4033 122.596 36.3389C122.505 36.2744 122.396 36.2173 122.271 36.1675C122.147 36.1147 122.014 36.0605 121.871 36.0049C121.671 35.9258 121.496 35.8467 121.343 35.7676C121.194 35.6855 121.068 35.5947 120.965 35.4951C120.866 35.3926 120.79 35.2769 120.737 35.1479C120.687 35.019 120.662 34.8682 120.662 34.6953C120.662 34.4844 120.71 34.2983 120.807 34.1372C120.904 33.9731 121.033 33.8369 121.194 33.7285C121.355 33.6172 121.538 33.5337 121.743 33.478C121.951 33.4224 122.165 33.3945 122.385 33.3945C122.774 33.3945 123.123 33.4619 123.431 33.5967V34.3262C123.1 34.1094 122.719 34.001 122.288 34.001C122.153 34.001 122.032 34.0171 121.923 34.0493C121.815 34.0786 121.721 34.1211 121.642 34.1768C121.566 34.2324 121.506 34.2998 121.462 34.3789C121.421 34.4551 121.4 34.54 121.4 34.6338C121.4 34.751 121.421 34.8491 121.462 34.9282C121.506 35.0073 121.569 35.0776 121.651 35.1392C121.733 35.2007 121.833 35.2563 121.95 35.3062C122.067 35.356 122.2 35.4102 122.35 35.4688C122.549 35.5449 122.728 35.624 122.886 35.7061C123.044 35.7852 123.179 35.876 123.29 35.9785C123.401 36.0781 123.486 36.1938 123.545 36.3257C123.606 36.4575 123.637 36.6143 123.637 36.7959C123.637 37.0186 123.587 37.2119 123.488 37.376C123.391 37.54 123.261 37.6763 123.097 37.7847C122.933 37.8931 122.744 37.9736 122.53 38.0264C122.316 38.0791 122.092 38.1055 121.857 38.1055C121.395 38.1055 120.993 38.0161 120.653 37.8374ZM130.585 38H127.315V31.6982H128.054V37.332H130.585V38ZM134.821 38H131.552V31.6982H132.29V37.332H134.821V38ZM140.077 37.7363C139.611 37.9824 139.031 38.1055 138.337 38.1055C137.44 38.1055 136.723 37.8169 136.184 37.2397C135.645 36.6626 135.375 35.9053 135.375 34.9678C135.375 33.96 135.678 33.1455 136.285 32.5244C136.891 31.9033 137.66 31.5928 138.592 31.5928C139.189 31.5928 139.685 31.6792 140.077 31.8521V32.6387C139.626 32.3867 139.128 32.2607 138.583 32.2607C137.859 32.2607 137.272 32.5024 136.821 32.9858C136.373 33.4692 136.148 34.1152 136.148 34.9238C136.148 35.6914 136.358 36.3037 136.777 36.7607C137.199 37.2148 137.751 37.4419 138.434 37.4419C139.066 37.4419 139.614 37.3013 140.077 37.02V37.7363Z" fill="#850101"/>
<path d="M54.436 49.4512C54.436 51.2207 53.6377 52.1055 52.041 52.1055C50.5117 52.1055 49.7471 51.2544 49.7471 49.5522V45.6982H50.4854V49.5039C50.4854 50.7959 51.0303 51.4419 52.1201 51.4419C53.1719 51.4419 53.6978 50.8179 53.6978 49.5698V45.6982H54.436V49.4512ZM60.8916 52H60.0742L59.4062 50.2334H56.7344L56.106 52H55.2842L57.7012 45.6982H58.4658L60.8916 52ZM59.1646 49.5698L58.1758 46.8848C58.1436 46.7969 58.1113 46.6562 58.0791 46.4629H58.0615C58.0322 46.6416 57.9985 46.7822 57.9604 46.8848L56.9805 49.5698H59.1646ZM65.1631 52H61.8232V45.6982H65.0225V46.3662H62.5615V48.4624H64.8379V49.126H62.5615V51.332H65.1631V52ZM71.0518 49.7764H68.6523V49.2095H71.0518V49.7764ZM76.2725 45.6982V46.3311H75.6572V51.3672H76.2725V52H74.3037V51.3672H74.9189V46.3311H74.3037V45.6982H76.2725ZM82.3984 52H81.4932L78.25 46.9771C78.168 46.8511 78.1006 46.7192 78.0479 46.5815H78.0215C78.0449 46.7163 78.0566 47.0049 78.0566 47.4473V52H77.3184V45.6982H78.2764L81.4316 50.6421C81.5635 50.8472 81.6484 50.9878 81.6865 51.064H81.7041C81.6748 50.8823 81.6602 50.5732 81.6602 50.1367V45.6982H82.3984V52ZM84.0508 52V45.6982H85.791C88.0117 45.6982 89.1221 46.7222 89.1221 48.77C89.1221 49.7427 88.813 50.5249 88.1948 51.1167C87.5796 51.7056 86.7549 52 85.7207 52H84.0508ZM84.7891 46.3662V51.332H85.7295C86.5557 51.332 87.1987 51.1108 87.6587 50.6685C88.1187 50.2261 88.3486 49.5991 88.3486 48.7876C88.3486 47.1733 87.4902 46.3662 85.7734 46.3662H84.7891ZM91.7148 45.6982V46.3311H91.0996V51.3672H91.7148V52H89.7461V51.3672H90.3613V46.3311H89.7461V45.6982H91.7148ZM97.6387 52H96.8213L96.1533 50.2334H93.4814L92.853 52H92.0312L94.4482 45.6982H95.2129L97.6387 52ZM95.9116 49.5698L94.9229 46.8848C94.8906 46.7969 94.8584 46.6562 94.8262 46.4629H94.8086C94.7793 46.6416 94.7456 46.7822 94.7075 46.8848L93.7275 49.5698H95.9116Z" fill="black"/>
<path d="M31.3076 22H27.5264L26.4307 18.5732H20.9521L19.8672 22H16.1074L21.7148 6.5957H25.8291L31.3076 22ZM25.6357 15.9092L23.9814 10.7314C23.8597 10.3447 23.7738 9.88281 23.7236 9.3457H23.6377C23.6019 9.79688 23.5124 10.2445 23.3691 10.6885L21.6934 15.9092H25.6357ZM42.4043 22H33.2305V6.5957H36.7002V19.1855H42.4043V22ZM63.8994 22H60.4189V15.7266H54.0381V22H50.5684V6.5957H54.0381V12.7402H60.4189V6.5957H63.8994V22ZM80.9795 22H77.1982L76.1025 18.5732H70.624L69.5391 22H65.7793L71.3867 6.5957H75.501L80.9795 22ZM75.3076 15.9092L73.6533 10.7314C73.5316 10.3447 73.4456 9.88281 73.3955 9.3457H73.3096C73.2738 9.79688 73.1842 10.2445 73.041 10.6885L71.3652 15.9092H75.3076ZM100.455 22H97.0283V12.7832C97.0283 11.7878 97.0713 10.6885 97.1572 9.48535H97.0713C96.8923 10.4307 96.7311 11.111 96.5879 11.5264L92.9785 22H90.1426L86.4688 11.6338C86.3685 11.3545 86.2074 10.6383 85.9854 9.48535H85.8887C85.9818 11.0036 86.0283 12.3356 86.0283 13.4814V22H82.9023V6.5957H87.9834L91.1309 15.7266C91.3815 16.457 91.5641 17.1911 91.6787 17.9287H91.7432C91.9365 17.0765 92.1406 16.3353 92.3555 15.7051L95.5029 6.5957H100.455V22ZM103.248 21.4092V17.9717C103.871 18.4945 104.548 18.8883 105.278 19.1533C106.009 19.4111 106.746 19.54 107.491 19.54C107.928 19.54 108.308 19.5007 108.63 19.4219C108.959 19.3431 109.231 19.2357 109.446 19.0996C109.668 18.9564 109.833 18.7917 109.94 18.6055C110.048 18.4121 110.102 18.2044 110.102 17.9824C110.102 17.6816 110.016 17.4131 109.844 17.1768C109.672 16.9404 109.436 16.722 109.135 16.5215C108.841 16.321 108.49 16.1276 108.082 15.9414C107.674 15.7552 107.233 15.5654 106.761 15.3721C105.558 14.8708 104.659 14.2585 104.064 13.5352C103.477 12.8118 103.184 11.9382 103.184 10.9141C103.184 10.112 103.345 9.42448 103.667 8.85156C103.989 8.27148 104.426 7.79525 104.978 7.42285C105.536 7.05046 106.181 6.77832 106.911 6.60645C107.642 6.42741 108.415 6.33789 109.231 6.33789C110.034 6.33789 110.743 6.38802 111.358 6.48828C111.981 6.58138 112.554 6.72819 113.077 6.92871V10.1406C112.819 9.96159 112.536 9.80404 112.229 9.66797C111.928 9.5319 111.616 9.4209 111.294 9.33496C110.972 9.24186 110.649 9.17383 110.327 9.13086C110.012 9.08789 109.711 9.06641 109.425 9.06641C109.031 9.06641 108.673 9.10579 108.351 9.18457C108.028 9.25618 107.756 9.36003 107.534 9.49609C107.312 9.63216 107.14 9.79688 107.019 9.99023C106.897 10.1764 106.836 10.3877 106.836 10.624C106.836 10.8818 106.904 11.1146 107.04 11.3223C107.176 11.5228 107.369 11.7161 107.62 11.9023C107.871 12.0814 108.175 12.2604 108.533 12.4395C108.891 12.6113 109.296 12.7904 109.747 12.9766C110.363 13.2344 110.914 13.5101 111.401 13.8037C111.896 14.0902 112.318 14.416 112.669 14.7812C113.02 15.1465 113.288 15.5654 113.475 16.0381C113.661 16.5036 113.754 17.0479 113.754 17.6709C113.754 18.5303 113.589 19.2536 113.26 19.8408C112.938 20.4209 112.497 20.8936 111.938 21.2588C111.38 21.6169 110.728 21.8747 109.983 22.0322C109.246 22.1898 108.465 22.2686 107.642 22.2686C106.797 22.2686 105.991 22.1969 105.225 22.0537C104.465 21.9105 103.807 21.6956 103.248 21.4092ZM129.835 22H126.054L124.958 18.5732H119.479L118.395 22H114.635L120.242 6.5957H124.356L129.835 22ZM124.163 15.9092L122.509 10.7314C122.387 10.3447 122.301 9.88281 122.251 9.3457H122.165C122.129 9.79688 122.04 10.2445 121.896 10.6885L120.221 15.9092H124.163Z" fill="#900000"/>
</svg>
