<svg width="39" height="38" viewBox="0 0 39 38" fill="none" xmlns="http://www.w3.org/2000/svg">
<g filter="url(#filter0_d_146_110)">
<circle cx="19.8203" cy="15" r="15" fill="black"/>
</g>
<path d="M19.8221 11.1484C18.8001 11.1484 17.82 11.5544 17.0974 12.2771C16.3747 12.9997 15.9688 13.9798 15.9688 15.0018C15.9688 16.0237 16.3747 17.0038 17.0974 17.7265C17.82 18.4491 18.8001 18.8551 19.8221 18.8551C20.8441 18.8551 21.8242 18.4491 22.5468 17.7265C23.2694 17.0038 23.6754 16.0237 23.6754 15.0018C23.6754 13.9798 23.2694 12.9997 22.5468 12.2771C21.8242 11.5544 20.8441 11.1484 19.8221 11.1484ZM19.8221 17.5043C19.1582 17.5043 18.5214 17.2405 18.052 16.7711C17.5825 16.3016 17.3187 15.6649 17.3187 15.0009C17.3187 14.337 17.5825 13.7003 18.052 13.2308C18.5214 12.7613 19.1582 12.4976 19.8221 12.4976C20.486 12.4976 21.1227 12.7613 21.5922 13.2308C22.0617 13.7003 22.3254 14.337 22.3254 15.0009C22.3254 15.6649 22.0617 16.3016 21.5922 16.7711C21.1227 17.2405 20.486 17.5043 19.8221 17.5043Z" fill="white"/>
<path d="M23.828 11.906C24.3242 11.906 24.7264 11.5038 24.7264 11.0077C24.7264 10.5116 24.3242 10.1094 23.828 10.1094C23.3319 10.1094 22.9297 10.5116 22.9297 11.0077C22.9297 11.5038 23.3319 11.906 23.828 11.906Z" fill="white"/>
<path d="M26.9295 10.0961C26.7366 9.59796 26.4418 9.14555 26.0639 8.76786C25.6861 8.39018 25.2336 8.09554 24.7353 7.90281C24.1523 7.68394 23.5363 7.5656 22.9136 7.55281C22.1111 7.51781 21.857 7.50781 19.822 7.50781C17.787 7.50781 17.5261 7.50781 16.7303 7.55281C16.1081 7.56494 15.4926 7.68331 14.9103 7.90281C14.4119 8.09531 13.9593 8.38987 13.5814 8.76759C13.2036 9.1453 12.9088 9.59783 12.7161 10.0961C12.4972 10.6792 12.3792 11.2952 12.367 11.9178C12.3311 12.7195 12.3203 12.9736 12.3203 15.0095C12.3203 17.0445 12.3203 17.3036 12.367 18.1011C12.3795 18.7245 12.497 19.3395 12.7161 19.9236C12.9094 20.4218 13.2044 20.8741 13.5823 21.2518C13.9603 21.6295 14.4129 21.9241 14.9111 22.117C15.4923 22.3446 16.1081 22.4715 16.732 22.492C17.5345 22.527 17.7886 22.5378 19.8236 22.5378C21.8586 22.5378 22.1195 22.5378 22.9153 22.492C23.5379 22.4793 24.1538 22.3613 24.737 22.1428C25.2351 21.9496 25.6875 21.6547 26.0653 21.277C26.4431 20.8992 26.738 20.4468 26.9311 19.9486C27.1503 19.3653 27.2678 18.7503 27.2803 18.127C27.3161 17.3253 27.327 17.0711 27.327 15.0353C27.327 12.9995 27.327 12.7411 27.2803 11.9436C27.2706 11.3122 27.1519 10.6872 26.9295 10.0961ZM25.9145 18.0395C25.9091 18.5197 25.8214 18.9955 25.6553 19.4461C25.5302 19.7702 25.3386 20.0645 25.0929 20.31C24.8472 20.5556 24.5528 20.747 24.2286 20.872C23.783 21.0374 23.3123 21.125 22.837 21.1311C22.0453 21.1678 21.822 21.177 19.792 21.177C17.7603 21.177 17.5528 21.177 16.7461 21.1311C16.2711 21.1253 15.8006 21.0377 15.3553 20.872C15.0301 20.7478 14.7345 20.5567 14.4877 20.3111C14.241 20.0655 14.0485 19.7708 13.9228 19.4461C13.759 19.0004 13.6714 18.5302 13.6636 18.0553C13.6278 17.2636 13.6195 17.0403 13.6195 15.0103C13.6195 12.9795 13.6195 12.772 13.6636 11.9645C13.669 11.4845 13.7567 11.009 13.9228 10.5586C14.177 9.90115 14.6978 9.38365 15.3553 9.13198C15.8008 8.9671 16.2712 8.87945 16.7461 8.87281C17.5386 8.83698 17.7611 8.82698 19.792 8.82698C21.8228 8.82698 22.0311 8.82698 22.837 8.87281C23.3123 8.87853 23.7831 8.96621 24.2286 9.13198C24.5528 9.25721 24.8471 9.44881 25.0928 9.6945C25.3385 9.94019 25.5301 10.2345 25.6553 10.5586C25.8191 11.0044 25.9067 11.4746 25.9145 11.9495C25.9503 12.742 25.9595 12.9645 25.9595 14.9953C25.9595 17.0253 25.9595 17.2436 25.9236 18.0403H25.9145V18.0395Z" fill="white"/>
<defs>
<filter id="filter0_d_146_110" x="0.820312" y="0" width="38" height="38" filterUnits="userSpaceOnUse" color-interpolation-filters="sRGB">
<feFlood flood-opacity="0" result="BackgroundImageFix"/>
<feColorMatrix in="SourceAlpha" type="matrix" values="0 0 0 0 0 0 0 0 0 0 0 0 0 0 0 0 0 0 127 0" result="hardAlpha"/>
<feOffset dy="4"/>
<feGaussianBlur stdDeviation="2"/>
<feComposite in2="hardAlpha" operator="out"/>
<feColorMatrix type="matrix" values="0 0 0 0 0 0 0 0 0 0 0 0 0 0 0 0 0 0 0.25 0"/>
<feBlend mode="normal" in2="BackgroundImageFix" result="effect1_dropShadow_146_110"/>
<feBlend mode="normal" in="SourceGraphic" in2="effect1_dropShadow_146_110" result="shape"/>
</filter>
</defs>
</svg>
